<svg width="8" height="8" viewBox="0 0 8 8" fill="none" xmlns="http://www.w3.org/2000/svg">
<path d="M2.66669 4C3.42669 4 4.00002 3.42666 4.00002 2.66666C4.00002 1.90666 3.42669 1.33333 2.66669 1.33333C1.90669 1.33333 1.33335 1.90666 1.33335 2.66666C1.33335 3.42666 1.90669 4 2.66669 4ZM2.66669 2C3.05935 2 3.33335 2.274 3.33335 2.66666C3.33335 3.05933 3.05935 3.33333 2.66669 3.33333C2.27402 3.33333 2.00002 3.05933 2.00002 2.66666C2.00002 2.274 2.27402 2 2.66669 2ZM3.00002 4.33333H2.33335C1.41435 4.33333 0.666687 5.081 0.666687 6V6.33333H1.33335V6C1.33335 5.44866 1.78202 5 2.33335 5H3.00002C3.55135 5 4.00002 5.44866 4.00002 6V6.33333H4.66669V6C4.66669 5.081 3.91902 4.33333 3.00002 4.33333ZM6.12135 0.878662L5.65002 1.35C6.09035 1.791 6.33335 2.377 6.33335 3C6.33335 3.623 6.09035 4.209 5.65002 4.65L6.12135 5.12133C6.68802 4.55433 7.00002 3.801 7.00002 3C7.00002 2.199 6.68802 1.44566 6.12135 0.878662Z" fill="#97C93F"/>
<path d="M5.1783 1.82132L4.70697 2.29332C4.89597 2.48165 4.99997 2.73265 4.99997 2.99999C4.99997 3.26732 4.89597 3.51832 4.70697 3.70665L5.1783 4.17865C5.49297 3.86399 5.66664 3.44565 5.66664 2.99999C5.66664 2.55432 5.49297 2.13599 5.1783 1.82132Z" fill="#97C93F"/>
</svg>
