<svg width="20" height="22" viewBox="0 0 20 22" fill="none" xmlns="http://www.w3.org/2000/svg">
<rect width="20" height="22" fill="#E5E5E5"/>
<g clip-path="url(#clip0_0_1)">
<rect width="390" height="844" transform="translate(-301 -44)" fill="#0A1733"/>
<path d="M18.0439 14.2185C17.3201 13.498 16.5791 12.7518 16.5791 9.23185C16.5769 7.53459 15.9816 5.89295 14.8986 4.59805C13.8156 3.30315 12.315 2.43868 10.6628 2.15793L10.6212 2.15243C10.7611 1.94572 10.8425 1.70421 10.8567 1.454C10.8709 1.2038 10.8174 0.954415 10.7019 0.73281C10.5863 0.511205 10.4132 0.325806 10.2012 0.19665C9.98924 0.0674946 9.74645 -0.000504303 9.49909 2.81585e-06C9.25172 0.000509934 9.0092 0.0695038 8.79773 0.199527C8.58626 0.329551 8.41389 0.515659 8.29925 0.737736C8.1846 0.959813 8.13205 1.20941 8.14726 1.45956C8.16247 1.7097 8.24487 1.95088 8.38556 2.15701L8.38284 2.15243C4.98727 2.72351 2.43041 5.67518 2.42589 9.23185C2.42589 12.7518 1.68217 13.4998 0.961078 14.2194C0.528756 14.6054 0.222732 15.1157 0.0837431 15.6823C-0.0552458 16.2489 -0.0206062 16.8449 0.183051 17.3911C0.386708 17.9372 0.749721 18.4076 1.22377 18.7395C1.69781 19.0714 2.2604 19.2492 2.83665 19.2492H6.78774C6.78774 19.9785 7.07371 20.678 7.58274 21.1937C8.09177 21.7094 8.78216 21.9992 9.50203 21.9992C10.2219 21.9992 10.9123 21.7094 11.4213 21.1937C11.9303 20.678 12.2163 19.9785 12.2163 19.2492H16.1701C16.746 19.2492 17.3082 19.0715 17.782 18.7399C18.2558 18.4084 18.6188 17.9385 18.8227 17.3928C19.0266 16.8472 19.0617 16.2516 18.9234 15.6852C18.7851 15.1189 18.4799 14.6086 18.0484 14.2222L18.0457 14.2194L18.0439 14.2185ZM9.50203 20.2804C9.23223 20.2799 8.97361 20.1711 8.78283 19.9778C8.59204 19.7846 8.48465 19.5225 8.48417 19.2492H10.5208C10.5203 19.5227 10.4128 19.7849 10.2218 19.9782C10.0308 20.1715 9.77199 20.2802 9.50203 20.2804ZM16.1611 17.1858H2.83755C2.67977 17.1849 2.52576 17.1368 2.39481 17.0476C2.26387 16.9584 2.16181 16.8321 2.10143 16.6844C2.04106 16.5367 2.02504 16.3742 2.0554 16.2174C2.08575 16.0605 2.16113 15.9162 2.27208 15.8025C3.48446 14.5742 4.45979 13.4082 4.45979 9.23001C4.45979 7.87538 4.99093 6.57622 5.93637 5.61835C6.8818 4.66047 8.16408 4.12235 9.50113 4.12235C10.8382 4.12235 12.1205 4.66047 13.0659 5.61835C14.0113 6.57622 14.5425 7.87538 14.5425 9.23001C14.5425 13.4265 15.5277 14.5833 16.7302 15.8025C16.8411 15.9162 16.9165 16.0605 16.9469 16.2174C16.9772 16.3742 16.9612 16.5367 16.9008 16.6844C16.8404 16.8321 16.7384 16.9584 16.6074 17.0476C16.4765 17.1368 16.3225 17.1849 16.1647 17.1858H16.1611Z" fill="white"/>
</g>
<defs>
<clipPath id="clip0_0_1">
<rect width="390" height="844" fill="white" transform="translate(-301 -44)"/>
</clipPath>
</defs>
</svg>
