<svg width="8" height="6" viewBox="0 0 8 6" fill="none" xmlns="http://www.w3.org/2000/svg">
<path d="M3.00004 0C2.55801 0 2.13409 0.175595 1.82153 0.488155C1.50897 0.800716 1.33337 1.22464 1.33337 1.66667C1.33337 2.10869 1.50897 2.53262 1.82153 2.84518C2.13409 3.15774 2.55801 3.33333 3.00004 3.33333C3.44207 3.33333 3.86599 3.15774 4.17855 2.84518C4.49111 2.53262 4.66671 2.10869 4.66671 1.66667C4.66671 1.22464 4.49111 0.800716 4.17855 0.488155C3.86599 0.175595 3.44207 0 3.00004 0ZM2.00004 1.66667C2.00004 1.40145 2.1054 1.1471 2.29293 0.95956C2.48047 0.772024 2.73482 0.666667 3.00004 0.666667C3.26526 0.666667 3.51961 0.772024 3.70715 0.95956C3.89468 1.1471 4.00004 1.40145 4.00004 1.66667C4.00004 1.93188 3.89468 2.18624 3.70715 2.37377C3.51961 2.56131 3.26526 2.66667 3.00004 2.66667C2.73482 2.66667 2.48047 2.56131 2.29293 2.37377C2.1054 2.18624 2.00004 1.93188 2.00004 1.66667Z" fill="#97C93F"/>
<path d="M5.636 1.73933C5.54226 1.69157 5.43854 1.66667 5.33334 1.66667V1C5.54384 1.00001 5.75135 1.04987 5.93889 1.14549C6.12643 1.24111 6.28866 1.37978 6.41231 1.55014C6.53596 1.7205 6.61752 1.91772 6.65031 2.12566C6.68309 2.3336 6.66618 2.54635 6.60095 2.74649C6.53572 2.94664 6.42403 3.1285 6.27501 3.27718C6.126 3.42587 5.94389 3.53716 5.7436 3.60195C5.54331 3.66674 5.33053 3.68318 5.12266 3.64993C4.9148 3.61669 4.71776 3.53469 4.54767 3.41067L4.94034 2.872C5.01468 2.92611 5.09941 2.96425 5.1892 2.98403C5.27899 3.00381 5.3719 3.00481 5.4621 2.98695C5.55229 2.9691 5.63782 2.93278 5.7133 2.88028C5.78878 2.82778 5.85259 2.76023 5.90071 2.68188C5.94883 2.60353 5.98022 2.51608 5.99292 2.42501C6.00561 2.33395 5.99933 2.24124 5.97447 2.15272C5.94961 2.0642 5.90671 1.98178 5.84846 1.91064C5.79021 1.8395 5.71788 1.78117 5.636 1.73933Z" fill="#97C93F"/>
<path d="M6.66604 6C6.66595 5.64658 6.52552 5.30766 6.27561 5.05776C6.02571 4.80786 5.68679 4.66742 5.33337 4.66733V4C5.86378 4.00009 6.37244 4.21083 6.74749 4.58588C7.12254 4.96094 7.33329 5.46959 7.33337 6H6.66604Z" fill="#97C93F"/>
<path d="M5.33335 5.99999H4.66669C4.66669 5.55796 4.49109 5.13404 4.17853 4.82148C3.86597 4.50892 3.44205 4.33332 3.00002 4.33332C2.55799 4.33332 2.13407 4.50892 1.82151 4.82148C1.50895 5.13404 1.33335 5.55796 1.33335 5.99999H0.666687C0.666687 5.38115 0.91252 4.78766 1.3501 4.35007C1.78769 3.91249 2.38118 3.66666 3.00002 3.66666C3.61886 3.66666 4.21235 3.91249 4.64994 4.35007C5.08752 4.78766 5.33335 5.38115 5.33335 5.99999Z" fill="#97C93F"/>
</svg>
